inDegrees=no
num_controls=7
num_derivatives=13
num_iterations=144
num_multipliers=7
num_parameters=0
num_slacks=7
num_states=26
objective=6.045552
objective_accelerations=0.358420
objective_balance=0.071001
objective_effort=0.411233
objective_height=5.116409
objective_ligament=0.088489
solver_duration=1243.302754
status=Solve_Succeeded
success=true
DataType=double
version=3
OpenSimVersion=4.4-2022-07-23-0e9fedc
endheader
time	/jointset/ground_pelvis/pelvis_tilt/value	/jointset/ground_pelvis/pelvis_tx/value	/jointset/ground_pelvis/pelvis_ty/value	/jointset/hip_r/hip_flexion_r/value	/jointset/hip_r/hip_adduction_r/value	/jointset/hip_r/hip_rotation_r/value	/jointset/back/lumbar_extension/value	/jointset/patellofemoral_r/patellar_flexion_r/value	/jointset/knee_r/knee_flexion_r/value	/jointset/knee_r/knee_adduction_r/value	/jointset/knee_r/knee_rotation_r/value	/jointset/ankle_r/ankle_angle_r/value	/jointset/subtalar_r/subtalar_angle_r/value	/jointset/ground_pelvis/pelvis_tilt/speed	/jointset/ground_pelvis/pelvis_tx/speed	/jointset/ground_pelvis/pelvis_ty/speed	/jointset/hip_r/hip_flexion_r/speed	/jointset/hip_r/hip_adduction_r/speed	/jointset/hip_r/hip_rotation_r/speed	/jointset/back/lumbar_extension/speed	/jointset/patellofemoral_r/patellar_flexion_r/speed	/jointset/knee_r/knee_flexion_r/speed	/jointset/knee_r/knee_adduction_r/speed	/jointset/knee_r/knee_rotation_r/speed	/jointset/ankle_r/ankle_angle_r/speed	/jointset/subtalar_r/subtalar_angle_r/speed	/forceset/tau_hip_flexion_r	/forceset/tau_hip_adduction_r	/forceset/tau_hip_rotation_r	/forceset/tau_knee_flexion_r	/forceset/tau_ankle_angle_r	/forceset/tau_subtalar_angle_r	/forceset/tau_lumbar_extension	lambda_cid13_p0	lambda_cid14_p0	lambda_cid14_p1	lambda_cid14_p2	lambda_cid14_p3	lambda_cid14_p4	lambda_cid14_p5	/jointset/ground_pelvis/pelvis_tilt/accel	/jointset/ground_pelvis/pelvis_tx/accel	/jointset/ground_pelvis/pelvis_ty/accel	/jointset/hip_r/hip_flexion_r/accel	/jointset/hip_r/hip_adduction_r/accel	/jointset/hip_r/hip_rotation_r/accel	/jointset/back/lumbar_extension/accel	/jointset/patellofemoral_r/patellar_flexion_r/accel	/jointset/knee_r/knee_flexion_r/accel	/jointset/knee_r/knee_adduction_r/accel	/jointset/knee_r/knee_rotation_r/accel	/jointset/ankle_r/ankle_angle_r/accel	/jointset/subtalar_r/subtalar_angle_r/accel	gamma_cid13_p0	gamma_cid14_p0	gamma_cid14_p1	gamma_cid14_p2	gamma_cid14_p3	gamma_cid14_p4	gamma_cid14_p5
1	-0.1662851315861689	0.05285724353553289	0.7701849725941301	1.016983622766876	-0.2342058058895907	-0.08786407673499735	-0.4361778453527519	1.094113350182851	1.09411335018267	-0.03058376356065368	0.1745314929317344	0.4363190461756007	0.1078026042728913	-0.0003096261931497208	0.006731637738420931	0.01281449936729494	-0.03986271745175291	0.001797945293109364	-0.009725664799014102	0.01361474446353205	-0.04724567697234577	-0.04724567697234608	0.001490160551942219	-5.54258767610624e-05	-0.008318350317312203	8.655630501392081e-06	-0.1883660079585681	0.02445484139745092	0.01335871239572628	-0.4221753045001401	-0.05796221165754082	0.009156134263824596	0.238643165561145	-6.137327562645144	-65.02431701467255	-6.563560615303045	0.5409381194644662	15.97279126497968	-767.0139024969221	59.41931529551185	0.909439008949595	0.124871682417888	1.140769435352356	-3.794968509492038	0.1100100756700727	-0.4979298377652021	0.6322536515320333	-4.101656439563016	-4.10165643956335	0.5397875216212882	-0.001597721525965819	-1.392604866486293	-0.3515760289347859	9.67301957926494e-10	-1.832948867100585e-09	3.559201973320654e-09	7.001252599096657e-09	4.904296427701551e-09	-5.349462356249657e-09	3.076732743388455e-09
1.01	-0.1662439331531198	0.05293077957561796	0.7703699979618347	1.016396616776545	-0.2341824309848246	-0.08798579350712565	-0.4360082419110249	1.093435885784401	1.093435885783236	-0.03054131289561473	0.1745308633611822	0.4361660502958987	0.1077848503734871	0.008495814291264506	0.007975911618888925	0.02418797203608605	-0.07749300419088032	0.002877227327870015	-0.01462059182022586	0.02042058784623205	-0.08827206699239476	-0.08827206699239419	0.007005393872056117	-6.853069992372963e-05	-0.02229946265904227	-0.003565868109469286	-0.1890010598891371	0.02473335417634525	0.01333402795796043	-0.4212489473574875	-0.0592697256448177	0.009241637916574012	0.2392143225586584	-6.174846592628398	-65.45736319100693	-6.591071988286387	0.5325566143858207	16.2737945965025	-767.2750000567953	59.31515526478866	0.858072383092698	0.1242569848896005	1.135244229239664	-3.740236883946714	0.106918233444677	-0.48570833705968	0.7219462762322378	-4.106860293905979	-4.106860293905577	0.5582051279937827	-0.0008703175730753114	-1.403660394883358	-0.361352661262008	1.838577153297859e-09	-2.722373414452041e-10	7.883464516538333e-09	1.251806272934919e-08	2.736435486199733e-09	-8.135717431356978e-09	8.396061080659009e-09
1.02	-0.1661162851522447	0.05301676870331344	0.7706686796655465	1.015434672293253	-0.2341482570664976	-0.08815654639001783	-0.4357671407165521	1.092347411483615	1.092347411481467	-0.03044354711921579	0.1745301620514282	0.4358726840974032	0.1077311588137365	0.01698028737188853	0.00922225526050181	0.03554576656875438	-0.1148504160429548	0.003957748005253732	-0.01953288695185757	0.02791429501265903	-0.1294476574396489	-0.1294476574396433	0.01255318282366398	-6.977371755137034e-05	-0.03639241407545143	-0.007178876438792548	-0.1896361118197398	0.02501186695524137	0.01330934352016718	-0.42032259021484	-0.06057723963209191	0.009327141569328195	0.2397854795561408	-6.235414235250315	-65.90005463395948	-6.61510379431047	0.5177168723615037	16.58037234249189	-767.7010899225473	59.23672318243855	0.8452455281915277	0.1252856346468935	1.137633808127798	-3.740393532081467	0.1102578041946715	-0.501403459849207	0.7698264082774062	-4.131496525004041	-4.131496525003548	0.5462986479200925	0.0007746395810708994	-1.414972681422073	-0.3592729468053123	2.625591520482559e-09	-8.322102558762018e-11	8.012044694465484e-09	1.986685292277651e-08	3.403677981512541e-09	-9.937129176989312e-09	7.196184203881776e-09
1.03	-0.1659051648755454	0.05311529986307883	0.7710808283320478	1.014100280373126	-0.2341032871768738	-0.08837647772690387	-0.4354478543656182	1.090846575027759	1.090846575027196	-0.0302901285584778	0.1745294896309814	0.4354379816754043	0.1076411883377953	0.02521071176739636	0.01049112410773778	0.04687777522573525	-0.1520031194538005	0.005035192386303834	-0.02445269778178107	0.03604193354112425	-0.1707304566666069	-0.1707304566665959	0.01813698386497166	-6.539530482222941e-05	-0.0505516449611218	-0.01081682986405976	-0.1899653071024501	0.02508416107415717	0.01329861099404504	-0.419360738146819	-0.06133651312728786	0.009391864024058066	0.2401172508645833	-6.319408204894378	-66.13934318474377	-6.604951346157709	0.4887516902170198	16.69354446997087	-767.7297657789759	59.20500072251274	0.8069833862870212	0.128760446292289	1.130053312063555	-3.698980811781923	0.1063369058402456	-0.4871648123884456	0.8490763301238023	-4.128295748896625	-4.12829574889611	0.5653897704089065	0.0001724325829777571	-1.416935071769483	-0.3662936136925344	3.411746083298007e-09	9.179840037405975e-11	8.097811787032503e-09	2.723433679031788e-08	4.099850103731637e-09	-1.172849150089231e-08	5.929784824920345e-09
1.04	-0.1656127318566785	0.05322673429862271	0.771606110868635	1.012395107005654	-0.2340475730132831	-0.08864558615565431	-0.4350443228784001	1.088932585754162	1.088932585755185	-0.03008067819969081	0.1745288415927544	0.4348615795886222	0.1075147909129406	0.03324283580516545	0.01180291041619904	0.05817254058592639	-0.1890067055124788	0.006106602798555233	-0.02936830532468493	0.04476332226929541	-0.212078220987762	-0.2120782209877477	0.02375954243319177	-6.489727352641412e-05	-0.06473234703199013	-0.0144642662215318	-0.1902945023851551	0.02515645519307513	0.0132878784679127	-0.4183988860787977	-0.06209578662248361	0.009456586478791952	0.2404490221730306	-6.427318665210192	-66.3883556164694	-6.591254324770694	0.4532279367485471	16.81251615020481	-767.924504307538	59.19943076527804	0.8055854566437554	0.1338691268919767	1.130185148769852	-3.71057006164802	0.1090510104349156	-0.5005628024452963	0.888576448218574	-4.144489543843466	-4.144489543843373	0.5540501533025906	-1.436705559733093e-06	-1.419266918461632	-0.3611695332462915	4.128381288116818e-09	8.121955255682991e-10	8.509408002707933e-09	3.483772619673009e-08	3.94270232935492e-09	-1.325005651652823e-08	5.556835987272598e-09
1.05	-0.1652410132036899	0.05335148536227949	0.7722440928425122	1.010320802743338	-0.2339811885670117	-0.08896384377320313	-0.43455065806868	1.086604885620212	1.086604885620861	-0.0298148173537078	0.1745282049953071	0.4341432376840474	0.1073518493702705	0.04106093791748421	0.01315286572824809	0.06941114828460791	-0.2258104943667548	0.007168706814810535	-0.03428287235453344	0.05406678007007693	-0.2534632481983278	-0.2534632481983175	0.02941759476461644	-6.26633471984237e-05	-0.07894202607173376	-0.01812646537662883	-0.1903157637100229	0.02525605723668256	0.01328040346592254	-0.4172343867603138	-0.06266102329478603	0.009430603408820185	0.2404990223536599	-6.559724384668276	-66.55766888613194	-6.613038929900036	0.4348323550562412	16.92867561603464	-767.6996659464405	59.08682424282696	0.7639302668727801	0.1363939953065587	1.118789726758178	-3.658734519395018	0.1045604181671356	-0.4868473626521786	0.9658015052714224	-4.135726644865471	-4.135726644866133	0.5724287583807398	0.0003083584502296402	-1.422717801894865	-0.3691020146329687	4.842844012998234e-09	1.549635703863553e-09	8.931186378480498e-09	4.244848765123202e-08	3.758888308209589e-09	-1.476319036628082e-08	5.211807479040898e-09
1.06	-0.1647923119939075	0.05348990303144587	0.7729940791226444	1.007879770348066	-0.233904229016388	-0.08933123580293026	-0.4339610444690991	1.083863291747116	1.083863291747391	-0.029492226787346	0.1745275852473517	0.4332826191080423	0.1071522144544514	0.0486393471636736	0.01453623151811533	0.08057340183692194	-0.2623523321041366	0.008221623668916623	-0.0391951877602833	0.06395308024139496	-0.2948569688169865	-0.2948569688169806	0.0351054865087749	-6.152737493983392e-05	-0.09318768131804223	-0.02180294085138853	-0.1903370250348871	0.02535565928029189	0.01327292846393126	-0.4160698874418297	-0.06322625996708822	0.009404620338851772	0.2405490225342923	-6.717312919006607	-66.73669638517939	-6.631082034101741	0.4096238103771918	17.05021147647004	-767.6411454706861	59.00120821799921	0.7576468834178564	0.1405512224556378	1.114914319496346	-3.658179838269194	0.1072135780050592	-0.5001124776255779	1.005144922325862	-4.146228225462066	-4.146228225462028	0.5600180358493604	-0.0002210275194083738	-1.426462159774569	-0.3640247971788381	5.599170064775595e-09	1.980281679031122e-09	7.42689710547915e-09	4.981917039523025e-08	4.08959340261135e-09	-1.606316555221653e-08	2.864031497989991e-09
